<svg width="23" height="23" viewBox="0 0 23 23" fill="none" xmlns="http://www.w3.org/2000/svg">
<path d="M22.3794 10.0039C22.3788 10.0034 22.3783 10.0028 22.3778 10.0023L12.9956 0.620483C12.5957 0.220398 12.064 0 11.4984 0C10.9329 0 10.4012 0.220222 10.0011 0.620308L0.623841 9.9974C0.620682 10.0006 0.617524 10.0039 0.614365 10.007C-0.206863 10.833 -0.205459 12.1731 0.618401 12.997C0.994797 13.3736 1.49192 13.5917 2.02344 13.6145C2.04502 13.6166 2.06678 13.6176 2.08872 13.6176H2.46265V20.5221C2.46265 21.8884 3.5743 23 4.9409 23H8.61151C8.98352 23 9.28534 22.6984 9.28534 22.3262V16.9131C9.28534 16.2896 9.79247 15.7825 10.4159 15.7825H12.581C13.2044 15.7825 13.7115 16.2896 13.7115 16.9131V22.3262C13.7115 22.6984 14.0132 23 14.3854 23H18.056C19.4226 23 20.5342 21.8884 20.5342 20.5221V13.6176H20.881C21.4464 13.6176 21.978 13.3974 22.3783 12.9973C23.203 12.1721 23.2034 10.8297 22.3794 10.0039Z" fill="#CECDCD"/>
</svg>
