<svg width="24" height="20" viewBox="0 0 24 20" fill="none" xmlns="http://www.w3.org/2000/svg">
<path fill-rule="evenodd" clip-rule="evenodd" d="M7.33301 0.666601C6.09533 0.666601 4.90835 1.15827 4.03318 2.03344C3.15801 2.90861 2.66634 4.09559 2.66634 5.33327C2.66634 6.57094 3.15801 7.75793 4.03318 8.6331C4.90835 9.50827 6.09533 9.99993 7.33301 9.99993C8.57069 9.99993 9.75767 9.50827 10.6328 8.6331C11.508 7.75793 11.9997 6.57094 11.9997 5.33327C11.9997 4.09559 11.508 2.90861 10.6328 2.03344C9.75767 1.15827 8.57069 0.666601 7.33301 0.666601ZM4.99967 11.1666C3.762 11.1666 2.57501 11.6583 1.69984 12.5334C0.824673 13.4086 0.333008 14.5956 0.333008 15.8333V16.9999C0.333008 17.6188 0.57884 18.2123 1.01643 18.6498C1.45401 19.0874 2.0475 19.3333 2.66634 19.3333H11.9997C12.6185 19.3333 13.212 19.0874 13.6496 18.6498C14.0872 18.2123 14.333 17.6188 14.333 16.9999V15.8333C14.333 14.5956 13.8413 13.4086 12.9662 12.5334C12.091 11.6583 10.904 11.1666 9.66634 11.1666H4.99967ZM13.458 8.72243C14.0157 7.7191 14.333 6.5641 14.333 5.33327C14.3333 4.14728 14.0322 2.98067 13.458 1.94293C14.1205 1.31612 14.9521 0.897148 15.85 0.737802C16.748 0.578455 17.673 0.685718 18.5107 1.04633C19.3483 1.40695 20.062 2.00511 20.5634 2.76689C21.0648 3.52867 21.3321 4.42069 21.3321 5.33268C21.3321 6.24468 21.0648 7.13669 20.5634 7.89848C20.062 8.66026 19.3483 9.25842 18.5107 9.61904C17.673 9.97965 16.748 10.0869 15.85 9.92757C14.9521 9.76822 14.1205 9.34925 13.458 8.72243ZM16.0433 19.3333C16.44 18.6473 16.6675 17.8504 16.6675 16.9999V15.8333C16.6697 14.111 16.0347 12.4488 14.8848 11.1666H18.9997C20.2374 11.1666 21.4243 11.6583 22.2995 12.5334C23.1747 13.4086 23.6663 14.5956 23.6663 15.8333V16.9999C23.6663 17.6188 23.4205 18.2123 22.9829 18.6498C22.5453 19.0874 21.9518 19.3333 21.333 19.3333H16.0433Z" fill="#F72793"/>
</svg>
